<?xml version="1.0" encoding="iso-8859-1"?>
<!-- Generator: Adobe Illustrator 16.0.0, SVG Export Plug-In . SVG Version: 6.00 Build 0)  -->
<!DOCTYPE svg PUBLIC "-//W3C//DTD SVG 1.1//EN" "http://www.w3.org/Graphics/SVG/1.1/DTD/svg11.dtd">
<svg version="1.1" id="Capa_1" xmlns="http://www.w3.org/2000/svg" xmlns:xlink="http://www.w3.org/1999/xlink" x="0px" y="0px"
	 width="212.646px" height="212.646px" viewBox="0 0 212.646 212.646" style="enable-background:new 0 0 212.646 212.646;"
	 xml:space="preserve">
<g>
	<path d="M212.645,164.325l-0.311-25.338l0,0v-0.018l-0.53-42.978c0-0.019,0.006-0.036,0.006-0.055c0-0.006-0.006-0.012-0.006-0.024
		l-0.329-26.375l0,0c-0.072-5.538-5.163-10.382-14.334-13.813l-0.243-20.42l0,0l0,0C196.77,25.748,179.556,21.4,163.59,21.4
		l-1.108,0.006c-17.019,0.207-34.172,5.337-34.068,14.742l0.256,20.426c-9.079,3.647-14.061,8.631-13.999,14.16l0.383,31.551
		c-3.994-5.157-9.617-9.304-16.668-12.227c-13.262-5.496-25.148-4.022-34.258,3.952V56.2c0-1.72-1.403-3.118-3.118-3.118
		c-1.72,0-3.118,1.397-3.118,3.118v11.892c-1.726-2.6-4.01-5.14-7.076-6.878c-3.032-1.708-6.649-2.582-10.769-2.582
		c-5.52,0-10.053,1.589-10.257,1.659c-1.453,0.518-2.314,2.037-2.01,3.559c0.113,0.505,2.64,12.428,11.655,17.534
		c3.042,1.708,6.659,2.582,10.781,2.582c3.057,0,5.788-0.487,7.663-0.935v10.973c-9.109-7.974-20.98-9.447-34.257-3.945
		C2.334,98.875-5.034,117.986,3.433,142.489c6.972,20.203,22.664,39.664,37.312,46.259c6.391,2.88,12.541,3.271,17.735,1.114
		c0.828-0.341,1.656-0.779,2.518-1.327c0.862,0.548,1.69,0.975,2.518,1.327c2.213,0.914,4.597,1.383,7.103,1.383
		c2.375,0,4.883-0.578,7.432-1.395c0.569,0.816,1.461,1.395,2.533,1.395h97.712c1.711,0,3.118-1.395,3.118-3.118v-5.163
		C196.874,180.583,212.754,174.519,212.645,164.325z M50.235,77.725c-3.023,0-5.618-0.6-7.7-1.771
		c-4.29-2.424-6.64-7.39-7.77-10.531c1.434-0.292,3.297-0.561,5.312-0.561c3.018,0,5.611,0.6,7.694,1.769
		c4.29,2.426,6.64,7.389,7.77,10.534C54.095,77.457,52.232,77.725,50.235,77.725z M181.297,151.233
		c-0.646-12.166-5.772-22.201-14.462-29.229l-0.079-6.119c11.283-0.414,21.8-2.266,29.898-5.304
		c3.951-1.474,6.825-3.066,9.023-4.674l0.414,33.134C206.147,143.159,196.886,148.627,181.297,151.233z M205.368,79.503
		l0.201,16.535c0.013,2.81-4.25,6.141-11.088,8.704c-8.178,3.06-19.169,4.829-30.909,4.963c-0.828,0.013-1.619,0.353-2.191,0.938
		c-0.591,0.597-0.907,1.4-0.896,2.21l0.061,4.908c-8.342-4.652-18.857-7.233-31.085-7.233c-2.776,0-5.449,0.183-8.05,0.438
		l-0.384-30.428c8.689,5.934,24.966,9.003,40.798,9.003c0.499,0,0.986,0,1.485-0.006C179.624,89.34,196.587,85.842,205.368,79.503z
		 M129.46,116.78c11.308,0,22.999,2.57,31.755,8.732c0.39,0.561,0.926,0.986,1.59,1.193c7.446,5.889,12.397,14.675,12.397,27.146
		v7.916H83.725v-7.916C83.725,126.523,107.351,116.78,129.46,116.78z M190.961,59.929c0.012,0.846-1.438,2.999-6.99,5.076
		c-5.535,2.064-12.946,3.254-20.917,3.354c-7.922,0.067-15.417-0.91-20.983-2.843c-5.596-1.939-7.105-4.052-7.118-4.908
		l-0.188-15.899c6.467,3.629,16.971,5.331,26.951,5.331l1.12-0.006c10.692-0.131,21.439-2.207,27.931-6.074l0.152,13.268
		c-0.098,0.451-0.092,0.886,0.012,1.31L190.961,59.929z M162.574,27.623l1.035-0.006c17.451,0,27.035,5.121,27.06,7.751
		c0.049,2.85-10.521,8.211-27.9,8.43l-1.041,0.006c-17.445,0-27.036-5.121-27.066-7.751l0,0
		C134.625,33.198,145.189,27.843,162.574,27.623z M129.174,63.09c0.962,2.73,3.787,5.86,10.851,8.312
		c5.968,2.07,13.737,3.193,21.994,3.193c0.378,0,0.737,0,1.108-0.006c8.671-0.106,16.843-1.434,23.018-3.748
		c7.002-2.618,9.754-5.812,10.655-8.567c6.077,2.582,8.415,5.38,8.439,7.338c0.073,5.507-15.88,13.381-41.996,13.7
		c-26.391,0.198-42.259-7.164-42.326-12.665C120.899,68.694,123.134,65.827,129.174,63.09z M65.917,184.09
		c-0.904-0.377-1.839-0.962-2.969-1.839c-1.129-0.889-2.725-0.9-3.848-0.012c-1.167,0.913-2.083,1.485-2.987,1.863
		c-3.626,1.485-7.925,1.15-12.787-1.048c-13.019-5.852-27.63-24.174-33.978-42.611c-7.356-21.288-1.428-37.135,16.693-44.637
		c9.377-3.891,22.627-5.647,32.455,8.044c0.037,0.055,0.119,0.076,0.149,0.125c0.56,0.704,1.409,1.178,2.375,1.178
		c0.974,0,1.814-0.475,2.39-1.178c0.042-0.048,0.119-0.07,0.143-0.125c9.825-13.686,23.075-11.929,32.455-8.044
		c6.123,2.539,13.872,7.444,17.571,16.37c-22.354,4.805-36.091,20.101-36.091,41.681v29.642
		C73.151,185.198,69.239,185.466,65.917,184.09z M83.725,185.003V167.99h91.478v17.013H83.725z M181.438,176.612V157.56
		c9.365-1.479,18.833-4.287,24.782-8.567l0.189,15.405C206.464,168.453,197.677,173.958,181.438,176.612z M106.565,136.181
		c0-1.619,1.328-2.947,2.951-2.947c1.631,0,2.943,1.315,2.943,2.947s-1.312,2.947-2.943,2.947
		C107.893,139.128,106.565,137.812,106.565,136.181z M118.853,134.95c0-3.934,3.179-7.111,7.112-7.111s7.131,3.178,7.131,7.111
		s-3.197,7.125-7.131,7.125S118.853,138.884,118.853,134.95z M140.373,141.917c0-3.934,3.179-7.125,7.112-7.125
		s7.13,3.191,7.13,7.125c0,3.921-3.196,7.124-7.13,7.124S140.373,145.838,140.373,141.917z M102.632,150.673
		c0-3.397,2.75-6.138,6.147-6.138c3.386,0,6.123,2.74,6.123,6.138c0,3.386-2.737,6.138-6.123,6.138
		C105.387,156.811,102.632,154.059,102.632,150.673z"/>
</g>
<g>
</g>
<g>
</g>
<g>
</g>
<g>
</g>
<g>
</g>
<g>
</g>
<g>
</g>
<g>
</g>
<g>
</g>
<g>
</g>
<g>
</g>
<g>
</g>
<g>
</g>
<g>
</g>
<g>
</g>
</svg>
